<svg width="250" height="250" viewBox="0 0 2086 537" fill="none" xmlns="http://www.w3.org/2000/svg">
<path d="M647.46 532.437V0.366211H113.537V173.6H355.95L0 532.437H242.414L481.759 291.149V532.437H647.46Z" fill="black"/>
<path d="M780.65 12.8423V208.573H736.209V12.8423H780.65ZM800.025 50.389V12.8423H954.889V50.389H898.795V208.573H855.846V50.389H800.025Z" fill="black"/>
<path d="M748.988 470.989C739.354 450.867 734.535 427.913 734.535 402.129C734.535 376.343 739.354 353.391 748.988 333.269C758.744 313.028 773.076 297.064 791.984 285.376C810.892 273.689 833.052 267.846 858.465 267.846C883.877 267.846 906.037 273.689 924.945 285.376C943.853 297.064 958.124 313.028 967.76 333.269C977.514 353.391 982.392 376.343 982.392 402.129C982.392 427.913 977.514 450.867 967.76 470.989C958.124 491.107 943.853 507.012 924.945 518.698C906.037 530.264 883.877 536.048 858.465 536.048C833.052 536.048 810.892 530.264 791.984 518.698C773.076 507.012 758.744 491.107 748.988 470.989ZM767.595 402.489C767.595 422.732 770.906 440.624 777.532 456.166C784.278 471.711 794.574 484.121 808.422 493.397C822.394 502.673 839.074 507.314 858.465 507.314C877.975 507.314 894.715 502.673 908.686 493.397C922.656 484.121 933.015 471.711 939.757 456.166C946.503 440.503 949.874 422.611 949.874 402.489C949.874 382.007 946.442 363.874 939.578 348.09C932.832 332.308 922.474 319.775 908.506 310.497C894.656 301.221 877.975 296.582 858.465 296.582C829.44 296.582 807.038 306.402 791.263 326.04C775.486 345.561 767.595 371.042 767.595 402.489ZM1018.34 378.091V352.97H1055.01V335.078C1055.01 314.715 1060.74 299.054 1072.18 288.087C1083.74 277.001 1099.09 271.463 1118.24 271.463H1145.16L1144.44 296.582H1121.13C1109.33 296.582 1100.3 299.534 1094.04 305.439C1087.77 311.221 1084.64 319.656 1084.64 330.738V352.97H1142.99V378.091H1088.62V532.436H1058.63V378.091H1018.34ZM1151.48 378.091V352.97H1188.16V335.078C1188.16 314.715 1193.88 299.054 1205.32 288.087C1216.88 277.001 1232.24 271.463 1251.39 271.463H1278.48L1277.76 296.582H1254.45C1242.65 296.582 1233.56 299.534 1227.18 305.439C1220.91 311.221 1217.78 319.656 1217.78 330.738V352.97H1276.13V378.091H1221.76V532.436H1191.77V378.091H1151.48ZM1429.69 476.227H1459.32C1455.22 494.904 1446.07 509.543 1431.86 520.146C1417.77 530.749 1400.18 536.048 1379.11 536.048C1354.3 536.048 1333.58 527.253 1316.96 509.664C1300.34 492.072 1292.03 469.903 1292.03 443.155C1292.03 415.924 1299.98 393.575 1315.88 376.104C1331.9 358.634 1352.31 349.897 1377.12 349.897C1401.81 349.897 1421.8 357.969 1437.09 374.115C1452.39 390.261 1460.04 411.466 1460.04 437.731C1460.04 444.118 1459.68 448.397 1458.96 450.564H1322.38C1322.38 467.192 1327.92 481.289 1339 492.855C1350.2 504.423 1363.57 510.205 1379.11 510.205C1392.84 510.205 1404.1 507.255 1412.89 501.348C1421.68 495.444 1427.28 487.073 1429.69 476.227ZM1430.05 428.876C1430.05 413.214 1425.17 400.504 1415.42 390.743C1405.66 380.862 1393.14 375.924 1377.84 375.924C1362.43 375.924 1349.6 380.862 1339.36 390.743C1329.25 400.504 1323.83 413.214 1323.11 428.876H1430.05ZM1537 447.311V532.436H1507.37V352.97H1535.55V396.525C1537.6 383.755 1543.8 373.332 1554.16 365.258C1564.52 357.067 1576.8 352.97 1591.01 352.97H1610.16L1609.08 379.537H1594.62C1576.32 379.537 1562.11 385.44 1551.99 397.247C1542 408.937 1537 425.623 1537 447.311ZM1662.37 344.837V304.713H1690.01V352.97H1741.14V378.091H1687.84V468.458C1687.84 482.432 1690.25 492.193 1695.07 497.736C1699.88 503.158 1708.56 505.869 1721.08 505.869H1742.94V531.714C1734.99 532.194 1726.98 532.436 1718.91 532.436C1698.08 532.436 1682.84 527.496 1673.21 517.617C1663.69 507.615 1658.94 491.831 1658.94 470.263V378.091H1621.18V352.97H1654.24C1656.65 352.97 1658.58 352.246 1660.02 350.801C1661.59 349.235 1662.37 347.248 1662.37 344.837ZM1905.53 476.227H1935.16C1931.06 494.904 1921.91 509.543 1907.7 520.146C1893.61 530.749 1876.02 536.048 1854.95 536.048C1830.14 536.048 1809.42 527.253 1792.8 509.664C1776.18 492.072 1767.87 469.903 1767.87 443.155C1767.87 415.924 1775.82 393.575 1791.72 376.104C1807.73 358.634 1828.15 349.897 1852.96 349.897C1877.65 349.897 1897.64 357.969 1912.94 374.115C1928.23 390.261 1935.88 411.466 1935.88 437.731C1935.88 444.118 1935.52 448.397 1934.79 450.564H1798.22C1798.22 467.192 1803.76 481.289 1814.84 492.855C1826.04 504.423 1839.41 510.205 1854.95 510.205C1868.67 510.205 1879.94 507.255 1888.73 501.348C1897.52 495.444 1903.12 487.073 1905.53 476.227ZM1905.89 428.876C1905.89 413.214 1901.01 400.504 1891.26 390.743C1881.5 380.862 1868.98 375.924 1853.68 375.924C1838.27 375.924 1825.44 380.862 1815.2 390.743C1805.09 400.504 1799.66 413.214 1798.94 428.876H1905.89ZM2012.84 447.311V532.436H1983.21V352.97H2011.38V396.525C2013.43 383.755 2019.63 373.332 2030 365.258C2040.36 357.067 2052.64 352.97 2066.84 352.97H2086L2084.91 379.537H2070.46C2052.16 379.537 2037.95 385.44 2027.82 397.247C2017.83 408.937 2012.84 425.623 2012.84 447.311Z" fill="black"/>
</svg>
